<svg id="Lag_1" data-name="Lag 1" xmlns="http://www.w3.org/2000/svg" width="829" height="417.5" viewBox="0 0 829 417.5"><path d="M223.43,68.89,372.08,69V46.36l-177-.11-.23,364.81,177,.11,0-25.52-149.42-.09Z" style="stroke:#000;stroke-miterlimit:10"/><path d="M574.33,411.36h31l.59-285.85-32,.13Z" style="stroke:#000;stroke-miterlimit:10"/><path d="M728.38,193.51l-64-.15v27h95c1-11.44,7.12-94.75-57.23-158.45-7.26-7.18-72.5-69.57-159.18-55-80.2,13.38-145.74,87.3-155.3,181.63h29.51c2.63-85.18,74.39-153.1,159-151.22C660.11,39.2,728.47,109,728.38,193.51Z" style="stroke:#000;stroke-miterlimit:10"/><path d="M407,296,323.48,193.25l-.24.2v-.77l-32,.13q.56,71.77,1.1,143.55h32q-.7-46.87-1.4-93.75l71.22,85.52.36-.31a4.38,4.38,0,0,1-.08.62l25.77-.79,68.71-82.31.68,165.21,30.21-.12.91-217.6-29.38.53Q449.18,244.71,407,296Z" style="stroke:#000;stroke-miterlimit:10"/><path d="M769.33,273.36h-30q3.49,13,7,26l-87,1,.12,111.07,30.88-.07v-83l65.9-.48q5.78,15.3,11.55,30.7,9.9,26.49,19.55,52.78h34Z" style="stroke:#000;stroke-miterlimit:10"/><path d="M135.39,49.91,5,414.42H162v-25.7H45.93L168.7,49.91Z" style="stroke:#000;stroke-miterlimit:10"/></svg>